<svg xmlns="http://www.w3.org/2000/svg" xmlns:xlink="http://www.w3.org/1999/xlink" version="1.1" id="Layer_1" x="0" y="0" viewBox="222.1 367.1 170 60" enable-background="new 222.1 367.1 170 60" xml:space="preserve">
  <path fill="#010101" stroke="#FFFFFF" stroke-width="1.18" stroke-miterlimit="10" d="M391.3 417.7c0 5.1-3.8 8.3-8.9 8.3H232.1c-5.1 0-9.3-4.2-9.3-9.3v-39.2c0-5.1 4.1-9.3 9.3-9.3h150.4c5.1 0 8.9 4.1 8.9 9.3V417.7z"/>
  <path fill="#010101" stroke="#FFFFFF" stroke-width="1.18" stroke-miterlimit="10" d="M391.3 417.7c0 5.1-3.8 8.3-8.9 8.3H232.1c-5.1 0-9.3-4.2-9.3-9.3v-39.2c0-5.1 4.1-9.3 9.3-9.3h150.4c5.1 0 8.9 4.1 8.9 9.3V417.7z"/>
  <path fill="#FFFFFF" d="M338 409.7l-1.3 1.2c-0.3 0.2-0.6 0.3-0.9 0.5 -0.9 0.4-1.8 0.5-2.6 0.5 -0.8 0-2.2-0.1-3.5-1 -1.9-1.3-2.7-3.6-2.7-5.6 0-4.1 3.3-6.1 6.1-6.1 1 0 1.9 0.2 2.7 0.7 1.3 0.9 1.7 2 1.9 2.6l-6.2 2.5 -2 0.2c0.7 3.4 2.9 5.3 5.4 5.3C336.2 410.5 337.1 410.1 338 409.7 337.9 409.7 338.1 409.6 338 409.7zM334.2 403c0.5-0.2 0.8-0.3 0.8-0.7 0-1.1-1.2-2.3-2.6-2.3 -1.1 0-3 0.8-3 3.7 0 0.4 0.1 0.9 0.1 1.4L334.2 403z"/>
  <path fill="#FFFFFF" d="M325 409.5c0 1 0.2 1.2 1.1 1.3 0.5 0.1 0.9 0.1 1.4 0.1l-1 0.6h-4.7c0.6-0.8 0.7-0.9 0.7-1.4v-0.6l0-15.7h-2.1l2-1h3.8c-0.8 0.5-1.1 0.8-1.2 1.7L325 409.5z"/>
  <path fill="#FFFFFF" d="M317.8 400.4c0.6 0.5 1.9 1.6 1.9 3.6 0 2-1.1 2.9-2.2 3.8 -0.3 0.3-0.7 0.7-0.7 1.3 0 0.6 0.4 0.9 0.7 1.1l1 0.7c1.2 1 2.2 1.9 2.2 3.7 0 2.5-2.4 5-7 5 -3.8 0-5.7-1.8-5.7-3.8 0-1 0.5-2.3 2-3.2 1.6-1 3.9-1.1 5.1-1.2 -0.4-0.5-0.8-1-0.8-1.8 0-0.4 0.1-0.7 0.3-1 -0.3 0-0.6 0.1-0.8 0.1 -2.8 0-4.4-2.1-4.4-4.2 0-1.2 0.6-2.6 1.7-3.5 1.5-1.2 3.3-1.5 4.7-1.5h5.5l-1.7 1L317.8 400.4 317.8 400.4zM315.9 412.2c-0.2 0-0.3 0-0.6 0 -0.2 0-1.7 0.1-2.8 0.4 -0.6 0.2-2.3 0.8-2.3 2.7 0 1.9 1.8 3.2 4.7 3.2 2.5 0 3.9-1.2 3.9-2.9C318.8 414.3 317.9 413.6 315.9 412.2zM316.6 407.2c0.6-0.6 0.7-1.5 0.7-1.9 0-1.9-1.1-4.9-3.3-4.9 -0.7 0-1.4 0.3-1.9 0.9 -0.4 0.6-0.6 1.3-0.6 2 0 1.8 1 4.7 3.3 4.7C315.5 407.9 316.2 407.6 316.6 407.2z"/>
  <path fill="#FFFFFF" d="M301.4 411.8c-4.2 0-6.5-3.3-6.5-6.2 0-3.5 2.8-6.4 6.9-6.4 3.9 0 6.3 3 6.3 6.2C308.1 408.5 305.7 411.8 301.4 411.8zM304.7 409.7c0.6-0.8 0.8-1.9 0.8-2.9 0-2.3-1.1-6.8-4.4-6.8 -0.9 0-1.8 0.3-2.4 0.9 -1 0.9-1.2 2.1-1.2 3.2 0 2.6 1.3 6.9 4.5 6.9C303 411 304.1 410.5 304.7 409.7z"/>
  <path fill="#FFFFFF" d="M287.3 411.8c-4.2 0-6.5-3.3-6.5-6.2 0-3.5 2.8-6.4 6.9-6.4 3.9 0 6.3 3 6.3 6.2C294 408.5 291.6 411.8 287.3 411.8zM290.6 409.7c0.6-0.8 0.8-1.9 0.8-2.9 0-2.3-1.1-6.8-4.4-6.8 -0.9 0-1.7 0.3-2.4 0.9 -1 0.9-1.2 2.1-1.2 3.2 0 2.6 1.3 6.9 4.5 6.9C288.9 411 290 410.5 290.6 409.7z"/>
  <path fill="#FFFFFF" d="M279.1 410.9l-3.5 0.8c-1.4 0.2-2.7 0.4-4.1 0.4 -6.8 0-9.4-5-9.4-9 0-4.8 3.7-9.3 10-9.3 1.3 0 2.6 0.2 3.8 0.5 1.9 0.5 2.7 1.2 3.3 1.5l-2.1 2 -0.9 0.2 0.6-1c-0.8-0.8-2.4-2.3-5.3-2.3 -3.9 0-6.9 3-6.9 7.3 0 4.7 3.4 9 8.8 9 1.6 0 2.4-0.3 3.1-0.6v-4l-3.7 0.2 2-1.1h5.3l-0.6 0.6c-0.2 0.1-0.2 0.2-0.2 0.4 0 0.2 0 0.9 0 1.2L279.1 410.9 279.1 410.9 279.1 410.9z"/>
  <path fill="#FFFFFF" d="M345.6 409.8v6.7h-1.3v-17.1h1.3v2c0.9-1.3 2.5-2.3 4.3-2.3 3.3 0 5.6 2.5 5.6 6.5 0 4-2.2 6.5-5.6 6.5C348.2 412.1 346.6 411.2 345.6 409.8zM354 405.6c0-3-1.6-5.3-4.3-5.3 -1.7 0-3.4 1.4-4.1 2.5v5.5c0.7 1.2 2.4 2.6 4.1 2.6C352.5 410.9 354 408.6 354 405.6z"/>
  <path fill="#FFFFFF" d="M357.3 411.8v-17.1h1.3v17.1H357.3z"/>
  <path fill="#FFFFFF" d="M373.7 415.4c0.3 0.1 0.8 0.2 1.1 0.2 0.8 0 1.4-0.3 1.9-1.5l1-2.2 -5.3-12.5h1.5l4.5 10.8 4.5-10.8h1.5l-6.4 15.1c-0.7 1.6-1.7 2.3-3.2 2.3 -0.4 0-1-0.1-1.3-0.2L373.7 415.4z"/>
  <path fill="#FFFFFF" d="M369.8 411.8c-0.1-0.4-0.2-0.8-0.2-1.1 0-0.3-0.1-0.6-0.1-1 -0.5 0.7-1.1 1.2-1.9 1.7 -0.8 0.4-1.6 0.7-2.7 0.7 -1.3 0-2.3-0.3-3-1 -0.7-0.6-1.1-1.5-1.1-2.6 0-1.1 0.5-2 1.6-2.7 1-0.7 2.4-1 4.1-1h3.1v-1.5c0-0.9-0.3-1.6-0.9-2.1 -0.6-0.5-1.5-0.8-2.6-0.8 -1 0-1.8 0.2-2.5 0.7 -0.6 0.5-0.9 1-0.9 1.7h-1.4l0-0.1c0-0.9 0.4-1.8 1.3-2.5 0.9-0.7 2.1-1.1 3.6-1.1 1.5 0 2.6 0.4 3.5 1.1 0.9 0.7 1.3 1.7 1.3 3v6.1c0 0.4 0 0.9 0.1 1.3 0.1 0.4 0.1 0.8 0.3 1.2L369.8 411.8 369.8 411.8zM365 410.8c1.1 0 2-0.3 2.8-0.8 0.8-0.5 1.4-1.1 1.7-1.9v-2.4h-3.1c-1.2 0-2.2 0.3-3 0.8 -0.8 0.5-1.2 1.2-1.2 1.9 0 0.7 0.3 1.3 0.8 1.7C363.4 410.6 364.1 410.8 365 410.8z"/>
  <path fill="#FFFFFF" d="M262.1 380.6c0-2.6 2-4.3 4.4-4.3 1.6 0 2.7 0.8 3.4 1.7l-1.2 0.7c-0.5-0.6-1.2-1.1-2.2-1.1 -1.7 0-2.9 1.3-2.9 3 0 1.7 1.2 3 2.9 3 0.9 0 1.6-0.4 2-0.8v-1.3H266v-1.3h4v3.1c-0.8 0.9-2 1.5-3.4 1.5C264.1 384.9 262.1 383.2 262.1 380.6z"/>
  <path fill="#FFFFFF" d="M271.8 384.8v-8.4h5.7v1.3h-4.3v2.2h4.2v1.3h-4.2v2.3h4.3v1.3L271.8 384.8 271.8 384.8z"/>
  <path fill="#FFFFFF" d="M281.6 384.8v-7.1H279v-1.3h6.5v1.3H283v7.1H281.6z"/>
  <path fill="#FFFFFF" d="M290.7 384.8v-8.4h1.5v8.4H290.7z"/>
  <path fill="#FFFFFF" d="M296.2 384.8v-7.1h-2.5v-1.3h6.5v1.3h-2.5v7.1H296.2z"/>
  <path fill="#FFFFFF" d="M305 380.6c0-2.5 1.8-4.3 4.3-4.3 2.5 0 4.3 1.8 4.3 4.3s-1.8 4.3-4.3 4.3C306.7 384.9 305 383.1 305 380.6zM312 380.6c0-1.7-1.1-3-2.8-3 -1.7 0-2.8 1.3-2.8 3 0 1.7 1.1 3 2.8 3C310.9 383.6 312 382.3 312 380.6z"/>
  <path fill="#FFFFFF" d="M321.1 384.8l-4.4-6v6h-1.5v-8.4h1.5l4.3 5.8v-5.8h1.5v8.4H321.1z"/>
  <polygon fill="none" points="244.6 404.9 248.9 400.6 248.9 400.6 244.6 404.9 230.9 391.2 230.9 391.2 244.6 404.9 230.9 418.6 230.9 418.6 244.6 404.9 248.9 409.2 248.9 409.2 "/>
  <linearGradient id="SVGID_1_" gradientUnits="userSpaceOnUse" x1="921.86" y1="-357.71" x2="903.77" y2="-369.03" gradientTransform="matrix(0.7071 0.7071 -0.7071 0.7071 -663.0814 4.8786)">
    <stop offset="0" stop-color="#D7E69D"/>
    <stop offset="0.45" stop-color="#94C4AA"/>
    <stop offset="1" stop-color="#01A4B6"/>
  </linearGradient>
  <path fill="url(#SVGID_1_)" d="M248.9 400.6l-16.7-9.2c-0.5-0.3-0.9-0.3-1.3-0.2l13.7 13.7L248.9 400.6z"/>
  <linearGradient id="SVGID_2_" gradientUnits="userSpaceOnUse" x1="911.35" y1="-367.38" x2="934.8" y2="-361.25" gradientTransform="matrix(0.7071 0.7071 -0.7071 0.7071 -663.0814 4.8786)">
    <stop offset="0" stop-color="#ED277B"/>
    <stop offset="0.02" stop-color="#EE2F7C"/>
    <stop offset="0.7" stop-color="#F7BD81"/>
    <stop offset="1" stop-color="#FEEB74"/>
  </linearGradient>
  <path fill="url(#SVGID_2_)" d="M248.9 409.2l5.7-3.1c1.2-0.6 1.2-1.7 0-2.3l-5.7-3.1 -4.3 4.3L248.9 409.2z"/>
  <linearGradient id="SVGID_3_" gradientUnits="userSpaceOnUse" x1="924.44" y1="-349.12" x2="899" y2="-364.09" gradientTransform="matrix(0.7071 0.7071 -0.7071 0.7071 -663.0814 4.8786)">
    <stop offset="0" stop-color="#89CFBD"/>
    <stop offset="0.09" stop-color="#7DBEBB"/>
    <stop offset="0.54" stop-color="#457CAC"/>
    <stop offset="0.85" stop-color="#1C5AA2"/>
    <stop offset="1" stop-color="#084D9F"/>
  </linearGradient>
  <path fill="url(#SVGID_3_)" d="M230.9 391.2c-0.5 0.2-0.8 0.7-0.8 1.5l0 24.5c0 0.8 0.3 1.3 0.8 1.4l13.7-13.7L230.9 391.2z"/>
  <linearGradient id="SVGID_4_" gradientUnits="userSpaceOnUse" x1="933.67" y1="-361.01" x2="918.01" y2="-340.37" gradientTransform="matrix(0.7071 0.7071 -0.7071 0.7071 -663.0814 4.8786)">
    <stop offset="0" stop-color="#F04A2B"/>
    <stop offset="0.47" stop-color="#B54F6B"/>
    <stop offset="0.84" stop-color="#8B5191"/>
    <stop offset="1" stop-color="#7851A1"/>
  </linearGradient>
  <path fill="url(#SVGID_4_)" d="M230.9 418.6c0.4 0.1 0.8 0.1 1.3-0.2l16.7-9.2 -4.3-4.3L230.9 418.6z"/>
</svg>
